<mxfile host="app.diagrams.net" agent="Mozilla/5.0 (Windows NT 10.0; Win64; x64) AppleWebKit/537.36 (KHTML, like Gecko) Chrome/131.0.0.0 Safari/537.36" version="25.0.3">
  <diagram id="C5RBs43oDa-KdzZeNtuy" name="Page-1">
    <mxGraphModel dx="1764" dy="1093" grid="1" gridSize="10" guides="1" tooltips="1" connect="1" arrows="1" fold="1" page="1" pageScale="1" pageWidth="827" pageHeight="1169" math="0" shadow="0">
      <root>
        <mxCell id="WIyWlLk6GJQsqaUBKTNV-0" />
        <mxCell id="WIyWlLk6GJQsqaUBKTNV-1" parent="WIyWlLk6GJQsqaUBKTNV-0" />
        <mxCell id="-0b8JW7brGIJbXixHkyz-7" value="" style="edgeStyle=orthogonalEdgeStyle;rounded=0;orthogonalLoop=1;jettySize=auto;html=1;" parent="WIyWlLk6GJQsqaUBKTNV-1" source="-0b8JW7brGIJbXixHkyz-3" target="-0b8JW7brGIJbXixHkyz-6" edge="1">
          <mxGeometry relative="1" as="geometry" />
        </mxCell>
        <mxCell id="-0b8JW7brGIJbXixHkyz-3" value="Start" style="ellipse;whiteSpace=wrap;html=1;" parent="WIyWlLk6GJQsqaUBKTNV-1" vertex="1">
          <mxGeometry x="340" y="40" width="120" height="40" as="geometry" />
        </mxCell>
        <mxCell id="-0b8JW7brGIJbXixHkyz-4" value="End" style="ellipse;whiteSpace=wrap;html=1;" parent="WIyWlLk6GJQsqaUBKTNV-1" vertex="1">
          <mxGeometry x="330.5" y="1880" width="120" height="50" as="geometry" />
        </mxCell>
        <mxCell id="-0b8JW7brGIJbXixHkyz-9" value="" style="edgeStyle=orthogonalEdgeStyle;rounded=0;orthogonalLoop=1;jettySize=auto;html=1;" parent="WIyWlLk6GJQsqaUBKTNV-1" source="-0b8JW7brGIJbXixHkyz-6" target="-0b8JW7brGIJbXixHkyz-8" edge="1">
          <mxGeometry relative="1" as="geometry" />
        </mxCell>
        <mxCell id="-0b8JW7brGIJbXixHkyz-6" value="Initialize (set random seeds)" style="rounded=0;whiteSpace=wrap;html=1;" parent="WIyWlLk6GJQsqaUBKTNV-1" vertex="1">
          <mxGeometry x="305" y="120" width="190" height="60" as="geometry" />
        </mxCell>
        <mxCell id="-0b8JW7brGIJbXixHkyz-11" value="" style="edgeStyle=orthogonalEdgeStyle;rounded=0;orthogonalLoop=1;jettySize=auto;html=1;" parent="WIyWlLk6GJQsqaUBKTNV-1" source="-0b8JW7brGIJbXixHkyz-8" target="-0b8JW7brGIJbXixHkyz-10" edge="1">
          <mxGeometry relative="1" as="geometry" />
        </mxCell>
        <mxCell id="-0b8JW7brGIJbXixHkyz-8" value="LoadMovieLensData" style="shape=process;whiteSpace=wrap;html=1;backgroundOutline=1;" parent="WIyWlLk6GJQsqaUBKTNV-1" vertex="1">
          <mxGeometry x="295" y="220" width="210" height="60" as="geometry" />
        </mxCell>
        <mxCell id="-0b8JW7brGIJbXixHkyz-14" style="edgeStyle=orthogonalEdgeStyle;rounded=0;orthogonalLoop=1;jettySize=auto;html=1;" parent="WIyWlLk6GJQsqaUBKTNV-1" target="-0b8JW7brGIJbXixHkyz-12" edge="1">
          <mxGeometry relative="1" as="geometry">
            <mxPoint x="391" y="820" as="sourcePoint" />
          </mxGeometry>
        </mxCell>
        <mxCell id="-0b8JW7brGIJbXixHkyz-10" value="ml = MovieLens()" style="rounded=0;whiteSpace=wrap;html=1;" parent="WIyWlLk6GJQsqaUBKTNV-1" vertex="1">
          <mxGeometry x="330" y="320" width="140" height="60" as="geometry" />
        </mxCell>
        <mxCell id="-0b8JW7brGIJbXixHkyz-16" value="" style="edgeStyle=orthogonalEdgeStyle;rounded=0;orthogonalLoop=1;jettySize=auto;html=1;" parent="WIyWlLk6GJQsqaUBKTNV-1" source="-0b8JW7brGIJbXixHkyz-12" target="-0b8JW7brGIJbXixHkyz-15" edge="1">
          <mxGeometry relative="1" as="geometry" />
        </mxCell>
        <mxCell id="-0b8JW7brGIJbXixHkyz-12" value="evaluationData = ml.loadMovieLensLatestSmall()&lt;div&gt;rankings = ml.getPopularityRanks()&lt;br&gt;&lt;/div&gt;" style="rounded=0;whiteSpace=wrap;html=1;" parent="WIyWlLk6GJQsqaUBKTNV-1" vertex="1">
          <mxGeometry x="226" y="860" width="330" height="60" as="geometry" />
        </mxCell>
        <mxCell id="-0b8JW7brGIJbXixHkyz-18" value="" style="edgeStyle=orthogonalEdgeStyle;rounded=0;orthogonalLoop=1;jettySize=auto;html=1;" parent="WIyWlLk6GJQsqaUBKTNV-1" source="-0b8JW7brGIJbXixHkyz-15" target="-0b8JW7brGIJbXixHkyz-17" edge="1">
          <mxGeometry relative="1" as="geometry" />
        </mxCell>
        <mxCell id="-0b8JW7brGIJbXixHkyz-15" value="Initialize evaluator = Evaluator(evaluationData, rankings)" style="rounded=0;whiteSpace=wrap;html=1;" parent="WIyWlLk6GJQsqaUBKTNV-1" vertex="1">
          <mxGeometry x="268.5" y="960" width="245" height="60" as="geometry" />
        </mxCell>
        <mxCell id="-0b8JW7brGIJbXixHkyz-21" value="" style="edgeStyle=orthogonalEdgeStyle;rounded=0;orthogonalLoop=1;jettySize=auto;html=1;" parent="WIyWlLk6GJQsqaUBKTNV-1" source="-0b8JW7brGIJbXixHkyz-17" target="-0b8JW7brGIJbXixHkyz-19" edge="1">
          <mxGeometry relative="1" as="geometry" />
        </mxCell>
        <mxCell id="-0b8JW7brGIJbXixHkyz-17" value="Add Algorithms to Evaluator" style="rounded=0;whiteSpace=wrap;html=1;" parent="WIyWlLk6GJQsqaUBKTNV-1" vertex="1">
          <mxGeometry x="296" y="1060" width="190" height="60" as="geometry" />
        </mxCell>
        <mxCell id="-0b8JW7brGIJbXixHkyz-23" value="" style="edgeStyle=orthogonalEdgeStyle;rounded=0;orthogonalLoop=1;jettySize=auto;html=1;" parent="WIyWlLk6GJQsqaUBKTNV-1" source="-0b8JW7brGIJbXixHkyz-19" target="-0b8JW7brGIJbXixHkyz-22" edge="1">
          <mxGeometry relative="1" as="geometry" />
        </mxCell>
        <mxCell id="-0b8JW7brGIJbXixHkyz-40" value="" style="edgeStyle=orthogonalEdgeStyle;rounded=0;orthogonalLoop=1;jettySize=auto;html=1;" parent="WIyWlLk6GJQsqaUBKTNV-1" source="-0b8JW7brGIJbXixHkyz-19" target="-0b8JW7brGIJbXixHkyz-39" edge="1">
          <mxGeometry relative="1" as="geometry" />
        </mxCell>
        <mxCell id="-0b8JW7brGIJbXixHkyz-19" value="Is the current algorithm the last one?" style="rhombus;whiteSpace=wrap;html=1;" parent="WIyWlLk6GJQsqaUBKTNV-1" vertex="1">
          <mxGeometry x="333.5" y="1370" width="115" height="120" as="geometry" />
        </mxCell>
        <mxCell id="-0b8JW7brGIJbXixHkyz-29" style="edgeStyle=orthogonalEdgeStyle;rounded=0;orthogonalLoop=1;jettySize=auto;html=1;entryX=0;entryY=0.5;entryDx=0;entryDy=0;" parent="WIyWlLk6GJQsqaUBKTNV-1" source="-0b8JW7brGIJbXixHkyz-22" target="-0b8JW7brGIJbXixHkyz-24" edge="1">
          <mxGeometry relative="1" as="geometry" />
        </mxCell>
        <mxCell id="-0b8JW7brGIJbXixHkyz-22" value="Fit Algorithm" style="rounded=0;whiteSpace=wrap;html=1;" parent="WIyWlLk6GJQsqaUBKTNV-1" vertex="1">
          <mxGeometry x="513.5" y="1400" width="120" height="60" as="geometry" />
        </mxCell>
        <mxCell id="-0b8JW7brGIJbXixHkyz-30" style="edgeStyle=orthogonalEdgeStyle;rounded=0;orthogonalLoop=1;jettySize=auto;html=1;" parent="WIyWlLk6GJQsqaUBKTNV-1" source="-0b8JW7brGIJbXixHkyz-24" target="-0b8JW7brGIJbXixHkyz-25" edge="1">
          <mxGeometry relative="1" as="geometry" />
        </mxCell>
        <mxCell id="-0b8JW7brGIJbXixHkyz-24" value="Test Algorithm" style="rounded=0;whiteSpace=wrap;html=1;" parent="WIyWlLk6GJQsqaUBKTNV-1" vertex="1">
          <mxGeometry x="711" y="1400" width="120" height="60" as="geometry" />
        </mxCell>
        <mxCell id="-0b8JW7brGIJbXixHkyz-31" style="edgeStyle=orthogonalEdgeStyle;rounded=0;orthogonalLoop=1;jettySize=auto;html=1;entryX=0.5;entryY=1;entryDx=0;entryDy=0;" parent="WIyWlLk6GJQsqaUBKTNV-1" source="-0b8JW7brGIJbXixHkyz-25" target="-0b8JW7brGIJbXixHkyz-26" edge="1">
          <mxGeometry relative="1" as="geometry" />
        </mxCell>
        <mxCell id="-0b8JW7brGIJbXixHkyz-25" value="Compute RMSE and MAE" style="rounded=0;whiteSpace=wrap;html=1;" parent="WIyWlLk6GJQsqaUBKTNV-1" vertex="1">
          <mxGeometry x="911" y="1400" width="110" height="60" as="geometry" />
        </mxCell>
        <mxCell id="-0b8JW7brGIJbXixHkyz-34" value="" style="edgeStyle=orthogonalEdgeStyle;rounded=0;orthogonalLoop=1;jettySize=auto;html=1;" parent="WIyWlLk6GJQsqaUBKTNV-1" source="-0b8JW7brGIJbXixHkyz-26" target="-0b8JW7brGIJbXixHkyz-27" edge="1">
          <mxGeometry relative="1" as="geometry" />
        </mxCell>
        <mxCell id="-0b8JW7brGIJbXixHkyz-26" value="doTopN = true?" style="rhombus;whiteSpace=wrap;html=1;" parent="WIyWlLk6GJQsqaUBKTNV-1" vertex="1">
          <mxGeometry x="926" y="1270" width="80" height="80" as="geometry" />
        </mxCell>
        <mxCell id="-0b8JW7brGIJbXixHkyz-33" style="edgeStyle=orthogonalEdgeStyle;rounded=0;orthogonalLoop=1;jettySize=auto;html=1;entryX=0.5;entryY=1;entryDx=0;entryDy=0;" parent="WIyWlLk6GJQsqaUBKTNV-1" source="-0b8JW7brGIJbXixHkyz-27" target="-0b8JW7brGIJbXixHkyz-28" edge="1">
          <mxGeometry relative="1" as="geometry" />
        </mxCell>
        <mxCell id="-0b8JW7brGIJbXixHkyz-27" value="Perform Leave-One-Out Evaluation" style="rounded=0;whiteSpace=wrap;html=1;" parent="WIyWlLk6GJQsqaUBKTNV-1" vertex="1">
          <mxGeometry x="1071" y="1280" width="120" height="60" as="geometry" />
        </mxCell>
        <mxCell id="-0b8JW7brGIJbXixHkyz-28" value="Compute Hit Rate, cHR, ARHR, Coverage, Diversity, Novelty" style="rounded=0;whiteSpace=wrap;html=1;" parent="WIyWlLk6GJQsqaUBKTNV-1" vertex="1">
          <mxGeometry x="1021" y="1170" width="220" height="60" as="geometry" />
        </mxCell>
        <mxCell id="-0b8JW7brGIJbXixHkyz-32" value="" style="endArrow=classic;html=1;rounded=0;exitX=0;exitY=0.5;exitDx=0;exitDy=0;" parent="WIyWlLk6GJQsqaUBKTNV-1" source="-0b8JW7brGIJbXixHkyz-26" edge="1">
          <mxGeometry width="50" height="50" relative="1" as="geometry">
            <mxPoint x="661" y="1330" as="sourcePoint" />
            <mxPoint x="391" y="1310" as="targetPoint" />
          </mxGeometry>
        </mxCell>
        <mxCell id="-0b8JW7brGIJbXixHkyz-35" value="" style="endArrow=classic;html=1;rounded=0;exitX=0;exitY=0.5;exitDx=0;exitDy=0;" parent="WIyWlLk6GJQsqaUBKTNV-1" source="-0b8JW7brGIJbXixHkyz-28" edge="1">
          <mxGeometry width="50" height="50" relative="1" as="geometry">
            <mxPoint x="751" y="1260" as="sourcePoint" />
            <mxPoint x="391" y="1200" as="targetPoint" />
          </mxGeometry>
        </mxCell>
        <mxCell id="-0b8JW7brGIJbXixHkyz-36" value="NO" style="text;html=1;align=center;verticalAlign=middle;whiteSpace=wrap;rounded=0;" parent="WIyWlLk6GJQsqaUBKTNV-1" vertex="1">
          <mxGeometry x="448.5" y="1400" width="60" height="30" as="geometry" />
        </mxCell>
        <mxCell id="-0b8JW7brGIJbXixHkyz-37" value="NO" style="text;html=1;align=center;verticalAlign=middle;whiteSpace=wrap;rounded=0;" parent="WIyWlLk6GJQsqaUBKTNV-1" vertex="1">
          <mxGeometry x="866" y="1280" width="60" height="30" as="geometry" />
        </mxCell>
        <mxCell id="-0b8JW7brGIJbXixHkyz-38" value="YES" style="text;html=1;align=center;verticalAlign=middle;whiteSpace=wrap;rounded=0;" parent="WIyWlLk6GJQsqaUBKTNV-1" vertex="1">
          <mxGeometry x="1006" y="1280" width="60" height="30" as="geometry" />
        </mxCell>
        <mxCell id="-0b8JW7brGIJbXixHkyz-43" style="edgeStyle=orthogonalEdgeStyle;rounded=0;orthogonalLoop=1;jettySize=auto;html=1;" parent="WIyWlLk6GJQsqaUBKTNV-1" source="-0b8JW7brGIJbXixHkyz-39" target="-0b8JW7brGIJbXixHkyz-42" edge="1">
          <mxGeometry relative="1" as="geometry" />
        </mxCell>
        <mxCell id="-0b8JW7brGIJbXixHkyz-39" value="SampleTopNRecs" style="shape=process;whiteSpace=wrap;html=1;backgroundOutline=1;" parent="WIyWlLk6GJQsqaUBKTNV-1" vertex="1">
          <mxGeometry x="311" y="1540" width="160" height="60" as="geometry" />
        </mxCell>
        <mxCell id="-0b8JW7brGIJbXixHkyz-41" value="YES" style="text;html=1;align=center;verticalAlign=middle;whiteSpace=wrap;rounded=0;" parent="WIyWlLk6GJQsqaUBKTNV-1" vertex="1">
          <mxGeometry x="391" y="1500" width="60" height="30" as="geometry" />
        </mxCell>
        <mxCell id="-0b8JW7brGIJbXixHkyz-47" style="edgeStyle=orthogonalEdgeStyle;rounded=0;orthogonalLoop=1;jettySize=auto;html=1;" parent="WIyWlLk6GJQsqaUBKTNV-1" source="-0b8JW7brGIJbXixHkyz-42" target="-0b8JW7brGIJbXixHkyz-44" edge="1">
          <mxGeometry relative="1" as="geometry" />
        </mxCell>
        <mxCell id="-0b8JW7brGIJbXixHkyz-52" style="edgeStyle=orthogonalEdgeStyle;rounded=0;orthogonalLoop=1;jettySize=auto;html=1;" parent="WIyWlLk6GJQsqaUBKTNV-1" source="-0b8JW7brGIJbXixHkyz-42" target="-0b8JW7brGIJbXixHkyz-4" edge="1">
          <mxGeometry relative="1" as="geometry" />
        </mxCell>
        <mxCell id="-0b8JW7brGIJbXixHkyz-42" value="Is the current algorithm the last one?" style="rhombus;whiteSpace=wrap;html=1;" parent="WIyWlLk6GJQsqaUBKTNV-1" vertex="1">
          <mxGeometry x="333.5" y="1710" width="115" height="120" as="geometry" />
        </mxCell>
        <mxCell id="-0b8JW7brGIJbXixHkyz-48" style="edgeStyle=orthogonalEdgeStyle;rounded=0;orthogonalLoop=1;jettySize=auto;html=1;" parent="WIyWlLk6GJQsqaUBKTNV-1" source="-0b8JW7brGIJbXixHkyz-44" target="-0b8JW7brGIJbXixHkyz-45" edge="1">
          <mxGeometry relative="1" as="geometry" />
        </mxCell>
        <mxCell id="-0b8JW7brGIJbXixHkyz-44" value="Fit on Full Data" style="rounded=0;whiteSpace=wrap;html=1;" parent="WIyWlLk6GJQsqaUBKTNV-1" vertex="1">
          <mxGeometry x="513.5" y="1740" width="120" height="60" as="geometry" />
        </mxCell>
        <mxCell id="-0b8JW7brGIJbXixHkyz-49" style="edgeStyle=orthogonalEdgeStyle;rounded=0;orthogonalLoop=1;jettySize=auto;html=1;" parent="WIyWlLk6GJQsqaUBKTNV-1" source="-0b8JW7brGIJbXixHkyz-45" target="-0b8JW7brGIJbXixHkyz-46" edge="1">
          <mxGeometry relative="1" as="geometry" />
        </mxCell>
        <mxCell id="-0b8JW7brGIJbXixHkyz-45" value="Compute Recommendations for Test Subject" style="rounded=0;whiteSpace=wrap;html=1;" parent="WIyWlLk6GJQsqaUBKTNV-1" vertex="1">
          <mxGeometry x="711" y="1740" width="120" height="60" as="geometry" />
        </mxCell>
        <mxCell id="-0b8JW7brGIJbXixHkyz-46" value="Recommendations" style="shape=parallelogram;perimeter=parallelogramPerimeter;whiteSpace=wrap;html=1;fixedSize=1;" parent="WIyWlLk6GJQsqaUBKTNV-1" vertex="1">
          <mxGeometry x="686" y="1630" width="170" height="60" as="geometry" />
        </mxCell>
        <mxCell id="-0b8JW7brGIJbXixHkyz-50" value="" style="endArrow=classic;html=1;rounded=0;exitX=0;exitY=0.5;exitDx=0;exitDy=0;" parent="WIyWlLk6GJQsqaUBKTNV-1" source="-0b8JW7brGIJbXixHkyz-46" edge="1">
          <mxGeometry width="50" height="50" relative="1" as="geometry">
            <mxPoint x="581" y="1650" as="sourcePoint" />
            <mxPoint x="391" y="1660" as="targetPoint" />
          </mxGeometry>
        </mxCell>
        <mxCell id="-0b8JW7brGIJbXixHkyz-51" value="NO" style="text;html=1;align=center;verticalAlign=middle;whiteSpace=wrap;rounded=0;" parent="WIyWlLk6GJQsqaUBKTNV-1" vertex="1">
          <mxGeometry x="448.5" y="1740" width="60" height="30" as="geometry" />
        </mxCell>
      </root>
    </mxGraphModel>
  </diagram>
</mxfile>
